:SAMPLES-PER-SECOND 30
:FULLY-SPECIFIED
:DEGREES
56
root  -22.3519 38.8988 9.30765 -58.5762 -78.2619 54.1136
RightUpLeg  -18.7654 -10.3633 -7.34164
RightLeg  -2.08535 -27.3417 8.66731
RightFoot  -1.60733 -0.803389 9.29395
RightToes  0.000482159 0.542163 -0.142577
Spine  15.7798 -2.87574 -8.50242
Spine1  8.48683 -6.82009 9.83718
HEad  8.07728 -14.4777 3.89143
LeftShoulder1  9.53526 -14.5833 -45.977
LeftArm  5.02567 -11.5708 -30.5785
LeftForeArm  26.7853 -18.1908 -5.11881
LeftHand  -0.25398 0.0180481 5.50724
RightShoulder  5.323 9.18734 35.9626
RightArm  0.61518 -2.94057 36.3167
RightForeArm  2.99594 19.7841 5.10963
RightHand  -1.48297 4.64052 -17.3917
LeftUpLeg  12.688 4.52349 -12.166
LeftLeg  12.1639 23.7359 -2.26248
LeftFoot  -19.7476 0.124393 0.0909741
LeftToes  1.06248e-005 4.65855e-005 -8.18498e-006
57
root  -24.0055 38.507 9.70769 -60.3637 -78.0331 55.9469
RightUpLeg  -18.2987 -10.2801 -6.65629
RightLeg  -5.95463 -31.4639 10.8221
RightFoot  -2.54154 -0.698623 8.84646
RightToes  0.000482159 0.542163 -0.142577
Spine  14.9678 -3.21333 -8.7775
Spine1  8.49618 -7.33173 10.5199
HEad  8.29609 -14.936 3.75891
LeftShoulder1  9.51824 -14.5852 -45.8873
LeftArm  4.83133 -12.2733 -31.0624
LeftForeArm  28.1068 -16.7556 -5.81117
LeftHand  -0.25398 0.0180481 5.50724
RightShoulder  5.29642 9.13033 35.9419
RightArm  -3.7199 -4.76947 35.6401
RightForeArm  6.6274 15.3112 6.03371
RightHand  -1.37848 4.19321 -16.9223
LeftUpLeg  15.1062 6.14142 -12.2773
LeftLeg  13.2453 22.2383 -1.96572
LeftFoot  -21.2519 0.0251053 -1.19643
LeftToes  1.06248e-005 4.65855e-005 -8.18498e-006
58
root  -25.6608 38.288 10.1424 -57.9517 -78.7897 53.9338
RightUpLeg  -19.1283 -10.305 -5.38061
RightLeg  -3.68889 -33.7337 10.5056
RightFoot  -1.61696 -0.317143 3.65746
RightToes  0.000482159 0.542163 -0.142577
Spine  14.3865 -3.90019 -6.7727
Spine1  8.41222 -8.05196 10.9969
HEad  8.38809 -15.4181 3.40395
LeftShoulder1  9.53348 -14.4874 -46.221
LeftArm  3.98244 -12.3692 -31.2884
LeftForeArm  29.4087 -15.298 -6.4896
LeftHand  -0.25398 0.0180481 5.50724
RightShoulder  5.23494 9.0135 35.8443
RightArm  -7.91041 -6.7888 34.3856
RightForeArm  9.99022 11.4238 6.39537
RightHand  -1.28954 3.71111 -16.6631
LeftUpLeg  17.2575 10.8801 -9.87542
LeftLeg  14.4707 17.1164 -1.32168
LeftFoot  -21.7306 -0.102536 -2.52905
LeftToes  1.06248e-005 4.65855e-005 -8.18498e-006
59
root  -27.3716 38.1501 10.6415 -54.1451 -80.8101 50.4562
RightUpLeg  -23.001 -14.7802 -1.2601
RightLeg  6.85063 -29.6978 5.36158
RightFoot  -0.566965 0.446675 -4.74422
RightToes  0.000482159 0.542163 -0.142577
Spine  14.2984 -4.66848 -2.30414
Spine1  8.03923 -8.32414 10.6399
HEad  8.17998 -16.1422 2.83763
LeftShoulder1  9.69267 -14.4437 -47.1295
LeftArm  3.0317 -11.886 -31.2604
LeftForeArm  30.6088 -14.1793 -6.95127
LeftHand  -0.25398 0.0180481 5.50724
RightShoulder  5.17882 8.88889 35.8125
RightArm  -10.514 -8.93514 32.4994
RightForeArm  10.7562 8.75565 6.09276
RightHand  -1.32622 3.80599 -16.9498
LeftUpLeg  19.2911 19.611 -4.54884
LeftLeg  17.2078 7.66824 0.0716645
LeftFoot  -21.5793 -0.41843 -6.09504
LeftToes  1.06248e-005 4.65855e-005 -8.18498e-006
60
root  -29.1169 38.0488 11.1275 -58.7147 -83.8086 55.0128
RightUpLeg  -28.2668 -26.966 8.13754
RightLeg  17.2677 -14.1102 -1.42075
RightFoot  -0.045452 1.21904 -12.322
RightToes  0.000482159 0.542163 -0.142577
Spine  15.1374 -4.98879 2.69801
Spine1  7.33587 -7.74473 9.65643
HEad  7.79527 -16.8588 2.3354
LeftShoulder1  9.84931 -14.4978 -47.76
LeftArm  1.82873 -10.8519 -31.4589
LeftForeArm  31.6543 -13.1128 -7.2879
LeftHand  -0.25398 0.0180481 5.50724
RightShoulder  5.18715 8.93089 35.7405
RightArm  -11.9578 -10.8093 30.5306
RightForeArm  9.30894 7.00641 5.63799
RightHand  -1.41193 4.14348 -17.4069
LeftUpLeg  20.0037 26.2126 0.738766
LeftLeg  23.1078 1.28329 1.29512
LeftFoot  -18.5022 -0.604541 -11.9349
LeftToes  1.06248e-005 4.65855e-005 -8.18498e-006
61
root  -30.791 38.0295 11.4781 -85.2243 -86.3277 81.3447
RightUpLeg  -30.0987 -27.3634 11.8249
RightLeg  23.3249 -9.49065 -5.145
RightFoot  -0.877131 1.44174 -15.6905
RightToes  0.000482159 0.542163 -0.142577
Spine  16.69 -4.90593 5.78365
Spine1  6.62964 -6.97087 9.33372
HEad  7.59866 -17.1853 2.16391
LeftShoulder1  9.83008 -14.5564 -47.5072
LeftArm  0.0851281 -9.57193 -31.9878
LeftForeArm  32.543 -11.5817 -7.6461
LeftHand  -0.25398 0.0180481 5.50724
RightShoulder  5.19313 9.10679 35.2167
RightArm  -12.9779 -11.9223 29.4674
RightForeArm  7.25755 5.75669 5.30511
RightHand  -1.4368 4.15603 -17.6813
LeftUpLeg  16.9879 26.5748 3.03375
LeftLeg  33.1364 2.54444 2.18537
LeftFoot  -9.02682 0.338344 -15.5026
LeftToes  1.06248e-005 4.65855e-005 -8.18498e-006
62
root  -32.296 37.9806 11.6869 -128.265 -87.01 124.404
RightUpLeg  -29.0798 -22.5644 10.874
RightLeg  28.1483 -11.8045 -6.98697
RightFoot  -3.3321 1.08545 -15.6611
RightToes  0.000482159 0.542163 -0.142577
Spine  18.0465 -5.01317 7.0713
Spine1  6.40466 -6.82955 10.2063
HEad  7.77743 -17.2267 2.38212
LeftShoulder1  9.72645 -14.5802 -46.9333
LeftArm  -1.74146 -8.63492 -32.1973
LeftForeArm  33.529 -9.62483 -7.96771
LeftHand  -0.25398 0.0180481 5.50724
RightShoulder  5.09217 9.14027 34.3204
RightArm  -13.5598 -12.1245 29.5078
RightForeArm  5.42141 5.40697 5.22213
RightHand  -1.43332 3.97793 -17.9565
LeftUpLeg  10.3937 26.0006 4.09402
LeftLeg  45.6306 3.40793 4.13255
LeftFoot  4.45301 1.78988 -13.3274
LeftToes  1.06248e-005 4.65855e-005 -8.18498e-006
63
root  -33.6402 37.8667 11.8445 -160.198 -86.4797 156.536
RightUpLeg  -28.5962 -20.9199 11.12
RightLeg  32.1101 -11.8922 -8.17866
RightFoot  -6.47196 0.583562 -14.6389
RightToes  0.000482159 0.542163 -0.142577
Spine  18.8805 -5.43603 8.14008
Spine1  6.64691 -7.14328 11.191
HEad  8.09553 -17.2892 2.95195
LeftShoulder1  9.70302 -14.6091 -46.7408
LeftArm  -2.9785 -8.33757 -31.6072
LeftForeArm  34.8029 -7.79522 -8.12785
LeftHand  -0.25398 0.0180481 5.50724
RightShoulder  4.95413 8.96604 33.784
RightArm  -13.3813 -11.6693 29.8445
RightForeArm  3.85244 6.65326 5.55562
RightHand  -1.49093 4.113 -18.4003
LeftUpLeg  2.02281 23.9231 4.02817
LeftLeg  57.3229 3.29878 6.04979
LeftFoot  12.7958 1.835 -8.82737
LeftToes  1.06248e-005 4.65855e-005 -8.18498e-006
